<svg width="12" height="10" viewBox="0 0 12 10" fill="none" xmlns="http://www.w3.org/2000/svg">
<path d="M3.90016 9.21244C3.73299 9.21251 3.56744 9.1796 3.413 9.1156C3.25857 9.05159 3.11827 8.95775 3.00016 8.83945L0.27916 6.11944C0.138557 5.9788 0.0595703 5.78807 0.0595703 5.58919C0.0595703 5.39032 0.138557 5.19959 0.27916 5.05894C0.419806 4.91834 0.610537 4.83935 0.80941 4.83935C1.00828 4.83935 1.19901 4.91834 1.33966 5.05894L3.90016 7.61944L10.6742 0.845444C10.8148 0.704841 11.0055 0.625854 11.2044 0.625854C11.4033 0.625854 11.594 0.704841 11.7347 0.845444C11.8753 0.98609 11.9543 1.17682 11.9543 1.37569C11.9543 1.57457 11.8753 1.7653 11.7347 1.90594L4.80016 8.83945C4.68205 8.95775 4.54175 9.05159 4.38732 9.1156C4.23288 9.1796 4.06733 9.21251 3.90016 9.21244Z" fill="#0B0D17"/>
</svg>
