<svg width="130" height="39" viewBox="0 0 130 39" fill="none" xmlns="http://www.w3.org/2000/svg">
<path d="M37.7195 12.8108L37.1391 11.7917C37.0936 11.7118 37.0302 11.6436 36.954 11.5922C36.8777 11.5409 36.7906 11.5078 36.6995 11.4957C36.6084 11.4836 36.5157 11.4927 36.4286 11.5223C36.3416 11.5519 36.2626 11.6012 36.1978 11.6663L34.8629 13C34.7653 13.0981 34.7046 13.2269 34.6911 13.3646C34.6776 13.5023 34.712 13.6404 34.7887 13.7556C35.2754 14.4994 35.6654 15.3021 35.9494 16.1444C36.4799 17.7189 36.628 19.3971 36.3816 21.0402C36.1351 22.6834 35.5011 24.2443 34.532 25.5939C33.5629 26.9435 32.2865 28.0431 30.8083 28.8017C29.3301 29.5604 27.6926 29.9564 26.0311 29.9569C24.3206 29.9616 22.6356 29.5433 21.1259 28.7393L23.3835 26.4805C24.7824 27.0097 26.3079 27.107 27.7627 26.76C29.2176 26.4131 30.5349 25.6377 31.5444 24.5341C32.554 23.4306 33.2093 22.0496 33.4258 20.5697C33.6422 19.0898 33.4098 17.579 32.7586 16.2326C32.7172 16.1464 32.6558 16.0713 32.5795 16.0138C32.5031 15.9562 32.4141 15.9178 32.3198 15.9018C32.2255 15.8857 32.1288 15.8925 32.0377 15.9216C31.9466 15.9507 31.8639 16.0012 31.7963 16.0689L30.4453 17.4107C30.3732 17.4827 30.3208 17.5718 30.293 17.6698C30.2651 17.7677 30.2628 17.8711 30.2862 17.9702L30.4023 18.4554C30.6021 19.3053 30.5493 20.195 30.2506 21.0153C29.9519 21.8357 29.4202 22.551 28.7207 23.0735C28.0212 23.5959 27.1845 23.9028 26.3131 23.9565C25.4417 24.0102 24.5736 23.8083 23.8153 23.3756L23.2198 23.0344C23.106 22.9688 22.9738 22.9428 22.8436 22.9602C22.7135 22.9776 22.5927 23.0376 22.5002 23.1307L16.9856 28.6441C16.9254 28.7043 16.8788 28.7767 16.8488 28.8564C16.8188 28.936 16.8062 29.0212 16.8118 29.1061C16.8174 29.1911 16.8411 29.2739 16.8813 29.3489C16.9215 29.424 16.9772 29.4896 17.0448 29.5413L17.8573 30.1646C20.2004 31.9703 23.0776 32.9454 26.0357 32.9364C28.3908 32.9334 30.7039 32.3127 32.7441 31.1363C34.7844 29.9599 36.4803 28.2689 37.6628 26.2321C38.8452 24.1954 39.4727 21.8841 39.4826 19.529C39.4926 17.174 38.8846 14.8575 37.7195 12.8108Z" fill="url(#paint0_linear)"/>
<path d="M34.2123 8.80053C31.8694 6.99421 28.9922 6.01867 26.0339 6.02759C23.6777 6.02942 21.3632 6.64955 19.3216 7.82602C17.2801 9.00249 15.5831 10.6941 14.4001 12.7318C13.2171 14.7696 12.5896 17.0821 12.5802 19.4383C12.5708 21.7945 13.1799 24.1119 14.3467 26.159L14.927 27.177C14.9727 27.2568 15.0362 27.325 15.1125 27.3763C15.1888 27.4276 15.2759 27.4606 15.367 27.4729C15.4582 27.4851 15.5509 27.4762 15.6381 27.4468C15.7252 27.4174 15.8044 27.3684 15.8695 27.3035L17.202 25.971C17.2989 25.8728 17.3592 25.7442 17.3727 25.6069C17.3862 25.4696 17.3522 25.3318 17.2763 25.2165C16.7891 24.473 16.3991 23.6702 16.1156 22.8278C15.5851 21.2532 15.4369 19.575 15.6834 17.9319C15.9299 16.2888 16.5639 14.7279 17.533 13.3783C18.5021 12.0287 19.7785 10.9291 21.2567 10.1704C22.7349 9.41175 24.3724 9.01579 26.0339 9.01527C27.7443 9.01139 29.429 9.43089 30.9379 10.2363L28.6792 12.4939C27.5477 12.0651 26.329 11.9174 25.1278 12.0635C23.9266 12.2097 22.7789 12.6453 21.7832 13.3329C20.7875 14.0205 19.9737 14.9397 19.4117 16.0112C18.8497 17.0828 18.5562 18.2749 18.5566 19.4849C18.5566 19.6091 18.5902 20.1755 18.6007 20.273C18.6922 21.1303 18.9305 21.9654 19.3052 22.7419C19.3467 22.8281 19.4083 22.9031 19.4847 22.9607C19.5612 23.0182 19.6503 23.0566 19.7446 23.0727C19.839 23.0887 19.9358 23.0819 20.027 23.0528C20.1181 23.0237 20.201 22.9732 20.2686 22.9055L21.6197 21.5533C21.6917 21.4815 21.7441 21.3926 21.7722 21.2949C21.8002 21.1972 21.8028 21.094 21.7799 20.995L21.6638 20.5087C21.4638 19.6587 21.5164 18.7689 21.8151 17.9485C22.1137 17.128 22.6455 16.4126 23.3451 15.8902C24.0447 15.3678 24.8816 15.061 25.7531 15.0076C26.6246 14.9542 27.4927 15.1565 28.2509 15.5896L28.8463 15.9308C28.9603 15.9958 29.0924 16.0215 29.2224 16.0041C29.3524 15.9867 29.4731 15.9271 29.566 15.8345L35.0793 10.3211C35.1396 10.2608 35.1864 10.1885 35.2164 10.1087C35.2465 10.029 35.2592 9.94377 35.2537 9.85873C35.2482 9.7737 35.2247 9.69081 35.1846 9.61562C35.1445 9.54042 35.0888 9.47464 35.0213 9.42268L34.2123 8.80053Z" fill="url(#paint1_linear)"/>
<path d="M56.8758 23.1957C56.7753 23.1141 56.6489 23.0708 56.5194 23.0738C56.3899 23.0768 56.2657 23.1258 56.169 23.212C55.3042 23.8829 54.3014 24.5038 52.8354 24.5038C50.1518 24.5038 47.9685 22.2439 47.9685 19.464C47.9685 16.6841 50.1437 14.4045 52.8157 14.4045C53.9764 14.4045 55.2299 14.8931 56.1515 15.7021C56.2035 15.7624 56.2681 15.8105 56.3407 15.843C56.4133 15.8755 56.4922 15.8916 56.5717 15.8902C56.6407 15.8847 56.7075 15.8642 56.7677 15.8301C56.8279 15.796 56.8798 15.7492 56.9199 15.6929L57.7928 14.7945C57.8484 14.7407 57.8922 14.676 57.9215 14.6045C57.9509 14.533 57.9652 14.4562 57.9634 14.3789C57.9601 14.3004 57.9407 14.2234 57.9064 14.1527C57.872 14.082 57.8235 14.0191 57.7638 13.968C56.2398 12.6402 54.7088 12.0482 52.7948 12.0482C48.7091 12.0482 45.3848 15.3934 45.3848 19.5046C45.3863 21.47 46.1673 23.3544 47.5564 24.7447C48.9456 26.1349 50.8294 26.9174 52.7948 26.9204C53.718 26.9314 54.6343 26.7596 55.4909 26.415C56.3474 26.0703 57.1274 25.5597 57.7858 24.9124C57.8436 24.8535 57.889 24.7836 57.9193 24.7068C57.9496 24.6301 57.9642 24.548 57.9623 24.4655C57.9607 24.3999 57.9459 24.3352 57.9188 24.2754C57.8917 24.2155 57.8528 24.1618 57.8044 24.1173L56.8758 23.1957Z" fill="#353047"/>
<path d="M63.2284 12.2502H61.9063C61.7588 12.2551 61.6187 12.3161 61.5146 12.4207C61.4104 12.5253 61.35 12.6656 61.3457 12.8131V26.1613C61.3498 26.3091 61.41 26.4497 61.5142 26.5545C61.6184 26.6593 61.7586 26.7205 61.9063 26.7255H63.2284C63.3761 26.7205 63.5163 26.6593 63.6205 26.5545C63.7247 26.4497 63.785 26.3091 63.789 26.1613V12.8131C63.7847 12.6656 63.7243 12.5253 63.6201 12.4207C63.516 12.3161 63.3759 12.2551 63.2284 12.2502Z" fill="#353047"/>
<path d="M78.8735 16.7433C78.8735 14.2663 76.8341 12.2502 74.3269 12.2502H68.8751C68.7262 12.2508 68.5836 12.3104 68.4785 12.4159C68.3734 12.5214 68.3145 12.6642 68.3145 12.8131V26.1613C68.3141 26.3104 68.373 26.4536 68.4781 26.5593C68.5832 26.6651 68.726 26.7248 68.8751 26.7255H70.1774C70.3251 26.7205 70.4653 26.6593 70.5695 26.5545C70.6737 26.4497 70.734 26.3091 70.738 26.1613V21.197H73.4703L76.0877 26.4376C76.1354 26.5235 76.2052 26.5949 76.29 26.6446C76.3747 26.6942 76.4712 26.7201 76.5694 26.7196H78.1318C78.2305 26.7229 78.3283 26.7001 78.4153 26.6534C78.5023 26.6067 78.5755 26.5379 78.6274 26.4538C78.6768 26.3651 78.7027 26.2652 78.7027 26.1637C78.7027 26.0621 78.6768 25.9622 78.6274 25.8735L75.9717 20.9242C77.7661 20.1268 78.8735 18.5413 78.8735 16.7433ZM76.4302 16.7839C76.4302 18.041 75.3936 19.1054 74.1668 19.1054H70.7786V14.5658H74.1621C75.3913 14.5658 76.4255 15.5814 76.4255 16.7839H76.4302Z" fill="#353047"/>
<path d="M93.1032 23.1957C93.0027 23.1141 92.8763 23.0708 92.7468 23.0738C92.6173 23.0768 92.4931 23.1258 92.3964 23.212C91.5316 23.8829 90.5288 24.5038 89.0628 24.5038C86.3792 24.5038 84.1959 22.2439 84.1959 19.464C84.1959 16.6841 86.3699 14.4045 89.0419 14.4045C90.2026 14.4045 91.4562 14.8931 92.3789 15.7021C92.4312 15.763 92.4963 15.8114 92.5696 15.844C92.6428 15.8765 92.7225 15.8923 92.8026 15.8902C92.8715 15.8847 92.9384 15.8642 92.9986 15.8301C93.0587 15.796 93.1107 15.7492 93.1508 15.6929L94.0237 14.7945C94.0791 14.7407 94.1227 14.676 94.1519 14.6044C94.1811 14.5329 94.1951 14.4561 94.1931 14.3789C94.1904 14.3004 94.1713 14.2234 94.1371 14.1526C94.1029 14.0819 94.0544 14.019 93.9947 13.968C92.4741 12.6402 90.9431 12.0482 89.0291 12.0482C84.9434 12.0482 81.6191 15.3934 81.6191 19.5046C81.6207 21.47 82.4017 23.3544 83.7908 24.7447C85.18 26.1349 87.0638 26.9174 89.0291 26.9205C89.9523 26.9312 90.8686 26.7594 91.7252 26.4148C92.5817 26.0702 93.3617 25.5596 94.0202 24.9124C94.0781 24.8533 94.1235 24.7832 94.1538 24.7063C94.1841 24.6293 94.1987 24.5471 94.1966 24.4644C94.1951 24.3987 94.1804 24.334 94.1532 24.2742C94.1261 24.2143 94.0872 24.1606 94.0388 24.1162L93.1032 23.1957Z" fill="#353047"/>
<path d="M105.262 24.4841H100.016V12.8131C100.011 12.6656 99.9508 12.5253 99.8467 12.4207C99.7425 12.3161 99.6025 12.2551 99.4549 12.2502H98.1329C97.984 12.2508 97.8414 12.3104 97.7363 12.4159C97.6313 12.5214 97.5723 12.6642 97.5723 12.8131V26.1613C97.572 26.3104 97.6308 26.4536 97.7359 26.5593C97.841 26.6651 97.9838 26.7248 98.1329 26.7255H105.262C105.336 26.7253 105.409 26.7106 105.477 26.6822C105.546 26.6537 105.608 26.6121 105.66 26.5597C105.712 26.5074 105.753 26.4452 105.781 26.3769C105.81 26.3085 105.824 26.2353 105.824 26.1613V25.0529C105.825 24.9785 105.811 24.9048 105.783 24.8359C105.755 24.767 105.714 24.7043 105.661 24.6515C105.609 24.5986 105.547 24.5566 105.478 24.5278C105.41 24.4991 105.336 24.4843 105.262 24.4841Z" fill="#353047"/>
<path d="M117.14 14.5089C117.289 14.5083 117.431 14.4487 117.536 14.3432C117.641 14.2377 117.7 14.0949 117.7 13.946V12.8166C117.7 12.6677 117.641 12.5249 117.536 12.4194C117.431 12.3139 117.289 12.2543 117.14 12.2537H109.131C108.982 12.2543 108.839 12.3139 108.734 12.4194C108.629 12.5249 108.57 12.6677 108.57 12.8166V26.1648C108.57 26.3139 108.629 26.4571 108.734 26.5628C108.839 26.6686 108.982 26.7283 109.131 26.7289H117.14C117.289 26.7283 117.432 26.6686 117.537 26.5628C117.642 26.4571 117.701 26.3139 117.7 26.1648V25.0563C117.7 24.9074 117.641 24.7646 117.536 24.6591C117.431 24.5536 117.289 24.494 117.14 24.4934H110.988V20.511H116.154C116.304 20.5107 116.446 20.4512 116.552 20.3457C116.657 20.2402 116.716 20.0971 116.716 19.948V18.8198C116.712 18.6719 116.652 18.5311 116.547 18.4263C116.443 18.3214 116.302 18.2604 116.154 18.2557H110.992V14.5089H117.14Z" fill="#353047"/>
<defs>
<linearGradient id="paint0_linear" x1="21.2872" y1="33.7977" x2="40.2301" y2="14.8548" gradientUnits="userSpaceOnUse">
<stop stop-color="#B090F5"/>
<stop offset="1" stop-color="#5FBFFF"/>
</linearGradient>
<linearGradient id="paint1_linear" x1="11.836" y1="24.1138" x2="30.7801" y2="5.17098" gradientUnits="userSpaceOnUse">
<stop stop-color="#68D7FA"/>
<stop offset="1" stop-color="#4EE498"/>
</linearGradient>
</defs>
</svg>
