<svg width="14" height="16" viewBox="0 0 14 16" fill="none" xmlns="http://www.w3.org/2000/svg">
<path d="M13.104 2.18133L11.5813 0.608667C11.3943 0.416644 11.1709 0.263893 10.924 0.159374C10.6772 0.0548549 10.412 0.000670954 10.144 0L7.00065 0C6.23251 0.000969683 5.4882 0.266727 4.89315 0.752479C4.29811 1.23823 3.88872 1.91428 3.73398 2.66667H3.66732C2.78359 2.66773 1.93636 3.01925 1.31146 3.64415C0.686572 4.26904 0.335043 5.11627 0.333984 6V12.6667C0.335043 13.5504 0.686572 14.3976 1.31146 15.0225C1.93636 15.6474 2.78359 15.9989 3.66732 16H7.66732C8.55105 15.9989 9.39828 15.6474 10.0232 15.0225C10.6481 14.3976 10.9996 13.5504 11.0007 12.6667V12.6C11.753 12.4453 12.4291 12.0359 12.9148 11.4408C13.4006 10.8458 13.6663 10.1015 13.6673 9.33333V3.57333C13.6683 3.05361 13.4662 2.55408 13.104 2.18133ZM7.66732 14.6667H3.66732C3.13688 14.6667 2.62818 14.456 2.2531 14.0809C1.87803 13.7058 1.66732 13.1971 1.66732 12.6667V6C1.66732 5.46957 1.87803 4.96086 2.2531 4.58579C2.62818 4.21071 3.13688 4 3.66732 4V9.33333C3.66838 10.2171 4.01991 11.0643 4.6448 11.6892C5.26969 12.3141 6.11692 12.6656 7.00065 12.6667H9.66732C9.66732 13.1971 9.4566 13.7058 9.08153 14.0809C8.70646 14.456 8.19775 14.6667 7.66732 14.6667ZM10.334 11.3333H7.00065C6.47022 11.3333 5.96151 11.1226 5.58644 10.7475C5.21136 10.3725 5.00065 9.86377 5.00065 9.33333V3.33333C5.00065 2.8029 5.21136 2.29419 5.58644 1.91912C5.96151 1.54405 6.47022 1.33333 7.00065 1.33333H9.66732V2.66667C9.66732 3.02029 9.80779 3.35943 10.0578 3.60948C10.3079 3.85952 10.647 4 11.0007 4H12.334V9.33333C12.334 9.86377 12.1233 10.3725 11.7482 10.7475C11.3731 11.1226 10.8644 11.3333 10.334 11.3333Z" fill="#8C30F5"/>
</svg>
