<svg width="24" height="24" viewBox="0 0 24 24" fill="none" xmlns="http://www.w3.org/2000/svg">
<path fill-rule="evenodd" clip-rule="evenodd" d="M1 24C1.55228 24 2 23.5523 2 23V22.2C2 20.985 2.98497 20 4.2 20H19.8C21.015 20 22 20.985 22 22.2V23C22 23.5523 22.4477 24 23 24C23.5523 24 24 23.5523 24 23V22.2C24 19.8804 22.1196 18 19.8 18H4.2C1.8804 18 0 19.8804 0 22.2V23C0 23.5523 0.447715 24 1 24Z" fill="#FFF"/>
<path fill-rule="evenodd" clip-rule="evenodd" d="M4 23C4 22.4477 4.44772 22 5 22H19C19.5523 22 20 22.4477 20 23C20 23.5523 19.5523 24 19 24H5C4.44772 24 4 23.5523 4 23Z" fill="#FFF"/>
<path fill-rule="evenodd" clip-rule="evenodd" d="M6.27498 10.3107C6.6655 9.92013 7.29867 9.92013 7.68919 10.3107L11.3283 13.9497C11.7188 14.3403 12.352 14.3403 12.7425 13.9497L16.3816 10.3107C16.7721 9.92013 17.4053 9.92013 17.7958 10.3107C18.1863 10.7012 18.1863 11.3343 17.7958 11.7249L14.1567 15.3639C12.9851 16.5355 11.0856 16.5355 9.91406 15.3639L6.27498 11.7249C5.88445 11.3343 5.88445 10.7012 6.27498 10.3107Z" fill="#FFF"/>
<path fill-rule="evenodd" clip-rule="evenodd" d="M3 1C3 0.447715 3.44772 0 4 0H5C9.41828 0 13 3.58172 13 8V14C13 14.5523 12.5523 15 12 15C11.4477 15 11 14.5523 11 14V8C11 4.68629 8.31371 2 5 2H4C3.44772 2 3 1.55228 3 1Z" fill="#FFF"/>
</svg>
