<svg width="17" height="21" viewBox="0 0 17 21" fill="none" xmlns="http://www.w3.org/2000/svg">
<path d="M10.48 13.2873L6.56609 15.7814C5.97322 16.1592 5.80472 16.9371 6.18973 17.5189C6.57007 18.0936 7.34827 18.2619 7.93864 17.9017L10.3702 16.2713L12.5181 14.8285C12.5523 14.8061 12.5864 14.7841 12.6204 14.7626L12.7288 14.6899C12.7907 14.6484 12.8548 14.6125 12.9205 14.582C12.9737 14.5517 13.0267 14.5225 13.0794 14.4942C14.3651 13.8065 15.9756 14.2717 16.6764 15.5334C17.2903 16.6385 17.01 18.0164 16.0107 18.8056C16.1678 18.4357 16.1422 17.9986 15.9031 17.6372C15.5227 17.0625 14.7445 16.8941 14.1542 17.2543L11.7226 18.8847L9.57474 20.3276C9.55441 20.3406 9.534 20.3533 9.51353 20.3659L9.36399 20.4662C9.23819 20.5505 9.10327 20.6118 8.96444 20.651C7.09459 21.4563 4.85219 20.8384 3.70378 19.1031C2.50942 17.2983 2.92149 14.9244 4.58932 13.6002C3.79695 13.2993 3.04585 12.8542 2.37677 12.2631C-0.568692 9.66062 -0.809478 5.21107 1.83896 2.32474C4.48739 -0.561589 9.02214 -0.791709 11.9676 1.81075C14.9131 4.41322 15.1538 8.86276 12.5054 11.7491C11.9119 12.3959 11.2238 12.9093 10.48 13.2873ZM10.1006 9.68083C11.6209 8.01196 11.4827 5.43922 9.79187 3.93448C8.10103 2.42973 5.49786 2.56279 3.97753 4.23167C2.45719 5.90055 2.59542 8.47328 4.28626 9.97802C5.9771 11.4828 8.58026 11.3497 10.1006 9.68083Z" fill="white"/>
</svg>
