<svg width="96" height="38" viewBox="0 0 96 38" fill="none" xmlns="http://www.w3.org/2000/svg">
<g clip-path="url(#clip0)">
<path d="M84.8749 6.03845C82.764 6.03827 80.7003 6.66411 78.9451 7.83682C77.1898 9.00953 75.8218 10.6764 75.014 12.6267C74.2061 14.577 73.9948 16.723 74.4067 18.7934C74.8187 20.8638 75.8353 22.7655 77.3281 24.258C78.8209 25.7506 80.7228 26.7669 82.7933 27.1785C84.8637 27.59 87.0097 27.3783 88.9598 26.5702C90.91 25.762 92.5766 24.3937 93.7491 22.6382C94.9215 20.8828 95.5469 18.8191 95.5464 16.7081C95.5427 13.8791 94.4172 11.1671 92.4166 9.16691C90.4161 7.16671 87.7039 6.04163 84.8749 6.03845ZM84.8749 22.3206C83.7653 22.3206 82.6806 21.9916 81.758 21.3751C80.8354 20.7587 80.1162 19.8826 79.6915 18.8575C79.2668 17.8324 79.1556 16.7043 79.3719 15.616C79.5883 14.5277 80.1225 13.528 80.9069 12.7433C81.6914 11.9585 82.691 11.424 83.7792 11.2073C84.8674 10.9906 85.9955 11.1015 87.0207 11.5258C88.046 11.9502 88.9224 12.6691 89.5391 13.5915C90.1558 14.5139 90.4852 15.5985 90.4856 16.7081C90.4843 18.1959 89.8929 19.6225 88.841 20.6747C87.7891 21.727 86.3627 22.3189 84.8749 22.3206ZM53.4527 14.5513L51.5883 13.6196C50.7802 13.2217 50.2741 12.908 50.0699 12.6786C49.8753 12.4753 49.7654 12.2054 49.7627 11.924C49.7627 11.5642 49.9232 11.2626 50.247 11.02C50.5708 10.7773 51.0173 10.6565 51.5883 10.6565C52.6338 10.6565 53.7956 11.2902 55.0735 12.5578L58.223 9.40835C57.4543 8.36266 56.4492 7.51366 55.2897 6.9307C54.1302 6.34775 52.8492 6.04738 51.5514 6.05413C49.6252 6.05413 48.0444 6.62239 46.8089 7.75892C45.5733 8.89544 44.9552 10.265 44.9546 11.8677C44.9546 14.3529 46.5945 16.4218 49.8743 18.0743L51.5883 18.9313C53.0643 19.6767 53.8023 20.4408 53.8023 21.2237C53.8023 21.6462 53.5975 22.0189 53.1879 22.3418C52.7784 22.6647 52.2381 22.8261 51.5671 22.8261C50.9453 22.8261 50.2341 22.6109 49.4334 22.1804C48.6358 21.7531 47.918 21.1914 47.3116 20.5199L44.2092 23.9036C45.9725 26.2142 48.3328 27.3694 51.2904 27.3694C53.5142 27.3694 55.2879 26.767 56.6113 25.5623C57.9348 24.3575 58.5963 22.8541 58.5956 21.0521C58.5956 19.6991 58.2291 18.519 57.496 17.5116C56.7629 16.5042 55.4152 15.5175 53.4527 14.5513ZM21.775 6.46096H16.7132L16.7298 8.28105C15.0905 6.62055 13.0712 6.03845 10.9937 6.03845C8.1632 6.03845 5.44863 7.16286 3.44716 9.16433C1.4457 11.1658 0.321289 13.8804 0.321289 16.7109C0.321289 19.5414 1.4457 22.2559 3.44716 24.2574C5.44863 26.2589 8.1632 27.3833 10.9937 27.3833C13.4503 27.3833 15.5527 26.2947 16.6357 24.91C16.6357 24.994 16.6283 26.0004 16.6256 26.1093C16.6053 26.7975 16.5056 27.8999 15.8571 29.0262C15.477 29.6687 14.9721 30.2285 14.3721 30.6727C13.7722 31.1168 13.0893 31.4363 12.3639 31.6123C11.6385 31.7883 10.8852 31.8173 10.1484 31.6974C9.41157 31.5776 8.70624 31.3114 8.07398 30.9146L5.55648 35.2965C7.21032 36.2996 9.10738 36.8305 11.0417 36.8315C13.8424 36.8315 17.335 35.7245 19.8119 32.2919C21.8718 29.4395 21.775 26.7449 21.775 24.1361V6.46096ZM10.9937 22.3206C9.88409 22.3206 8.79941 21.9916 7.87678 21.3751C6.95415 20.7587 6.23502 19.8826 5.81031 18.8575C5.3856 17.8324 5.27438 16.7043 5.49072 15.616C5.70706 14.5277 6.24124 13.528 7.02572 12.7433C7.8102 11.9585 8.80974 11.424 9.89798 11.2073C10.9862 10.9906 12.1143 11.1015 13.1395 11.5258C14.1648 11.9502 15.0412 12.6691 15.6579 13.5915C16.2746 14.5139 16.604 15.5985 16.6043 16.7081C16.6034 18.196 16.012 19.6227 14.9601 20.675C13.9081 21.7273 12.4816 22.3191 10.9937 22.3206ZM41.9547 6.46096H36.8671V16.6085C36.8772 18.0457 36.8754 20.5355 35.8154 21.6029C35.3071 22.1139 34.7536 22.5715 33.5793 22.5715C32.4049 22.5715 31.8468 22.1103 31.3394 21.6029C30.2795 20.5355 30.2823 18.0457 30.2924 16.6085V6.46096H25.2085V16.5725C25.1947 18.6546 25.1688 22.5318 27.7214 25.101C29.2195 26.6084 31.0037 27.3731 33.583 27.3731C36.1623 27.3731 37.9473 26.6084 39.4455 25.101C41.998 22.5318 41.9722 18.6546 41.9583 16.5725L41.9547 6.46096Z" fill="#F45D48"/>
<path d="M68.2693 22.2598C67.6891 22.1814 67.118 21.7672 66.7933 21.0107C66.571 20.4923 66.4907 19.8115 66.4907 18.9729V10.8134H72.4695V6.44535H66.4907V0.771973H61.417V18.5615C61.417 20.3059 61.5572 22.4203 62.7085 24.3732C63.691 26.0337 65.4216 27.376 68.2619 27.376C71.7056 27.376 74.1835 24.8852 74.1835 24.8852L71.1392 21.1417C71.1392 21.1417 69.8025 22.4673 68.2693 22.2598Z" fill="#F45D48"/>
</g>
<defs>
<clipPath id="clip0">
<rect width="96" height="36.8401" fill="white" transform="translate(0 0.379883)"/>
</clipPath>
</defs>
</svg>
