<svg width="22" height="24" viewBox="0 0 22 24" fill="none" xmlns="http://www.w3.org/2000/svg">
<path d="M14 6C14.2652 6 14.5196 6.10536 14.7071 6.29289C14.8946 6.48043 15 6.73478 15 7C15 7.26522 14.8946 7.51957 14.7071 7.70711C14.5196 7.89464 14.2652 8 14 8H6C5.73478 8 5.48043 7.89464 5.29289 7.70711C5.10536 7.51957 5 7.26522 5 7C5 6.73478 5.10536 6.48043 5.29289 6.29289C5.48043 6.10536 5.73478 6 6 6H14ZM21.707 23.707C21.5195 23.8945 21.2652 23.9998 21 23.9998C20.7348 23.9998 20.4805 23.8945 20.293 23.707L17.886 21.3C17.1732 21.755 16.3456 21.9977 15.5 22C14.61 22 13.74 21.7361 12.9999 21.2416C12.2599 20.7471 11.6831 20.0443 11.3425 19.2221C11.0019 18.3998 10.9128 17.495 11.0865 16.6221C11.2601 15.7492 11.6887 14.9474 12.318 14.318C12.9474 13.6887 13.7492 13.2601 14.6221 13.0865C15.495 12.9128 16.3998 13.0019 17.2221 13.3425C18.0443 13.6831 18.7471 14.2599 19.2416 14.9999C19.7361 15.74 20 16.61 20 17.5C19.9977 18.3456 19.755 19.1732 19.3 19.886L21.707 22.293C21.8945 22.4805 21.9998 22.7348 21.9998 23C21.9998 23.2652 21.8945 23.5195 21.707 23.707ZM15.5 20C15.9945 20 16.4778 19.8534 16.8889 19.5787C17.3 19.304 17.6205 18.9135 17.8097 18.4567C17.9989 17.9999 18.0484 17.4972 17.952 17.0123C17.8555 16.5273 17.6174 16.0819 17.2678 15.7322C16.9181 15.3826 16.4727 15.1445 15.9877 15.048C15.5028 14.9516 15.0001 15.0011 14.5433 15.1903C14.0865 15.3795 13.696 15.7 13.4213 16.1111C13.1466 16.5222 13 17.0055 13 17.5C13 18.163 13.2634 18.7989 13.7322 19.2678C14.2011 19.7366 14.837 20 15.5 20ZM11 22H5C4.20435 22 3.44129 21.6839 2.87868 21.1213C2.31607 20.5587 2 19.7956 2 19V5C2 4.20435 2.31607 3.44129 2.87868 2.87868C3.44129 2.31607 4.20435 2 5 2H17C17.2652 2 17.5196 2.10536 17.7071 2.29289C17.8946 2.48043 18 2.73478 18 3V11C18 11.2652 18.1054 11.5196 18.2929 11.7071C18.4804 11.8946 18.7348 12 19 12C19.2652 12 19.5196 11.8946 19.7071 11.7071C19.8946 11.5196 20 11.2652 20 11V3C20 2.20435 19.6839 1.44129 19.1213 0.87868C18.5587 0.31607 17.7956 0 17 0L5 0C3.67441 0.00158786 2.40356 0.528882 1.46622 1.46622C0.528882 2.40356 0.00158786 3.67441 0 5V19C0.00158786 20.3256 0.528882 21.5964 1.46622 22.5338C2.40356 23.4711 3.67441 23.9984 5 24H11C11.2652 24 11.5196 23.8946 11.7071 23.7071C11.8946 23.5196 12 23.2652 12 23C12 22.7348 11.8946 22.4804 11.7071 22.2929C11.5196 22.1054 11.2652 22 11 22Z" fill="#0B0D17"/>
</svg>
