<svg width="28" height="28" viewBox="0 0 28 28" fill="none" xmlns="http://www.w3.org/2000/svg">
<rect width="28" height="28" rx="14" fill="#0B0D17"/>
<path d="M16.3199 16.1915L13.7106 17.8543C13.3154 18.1062 13.2031 18.6248 13.4597 19.0126C13.7133 19.3957 14.2321 19.508 14.6257 19.2678L16.2467 18.1809L17.6786 17.219C17.7014 17.2041 17.7242 17.1894 17.7469 17.1751L17.8191 17.1266C17.8604 17.0989 17.9031 17.075 17.9469 17.0547C17.9824 17.0345 18.0177 17.015 18.0529 16.9962C18.91 16.5377 19.9836 16.8478 20.4509 17.6889C20.8602 18.4257 20.6733 19.3443 20.0071 19.8704C20.1118 19.6238 20.0947 19.3324 19.9353 19.0915C19.6817 18.7083 19.1629 18.5961 18.7694 18.8362L17.1483 19.9232L15.7164 20.8851C15.7029 20.8937 15.6893 20.9022 15.6756 20.9106L15.5759 20.9775C15.492 21.0337 15.4021 21.0746 15.3095 21.1007C14.063 21.6375 12.568 21.2256 11.8024 20.0687C11.0062 18.8656 11.2809 17.283 12.3928 16.4001C11.8646 16.1995 11.3638 15.9028 10.9178 15.5087C8.95412 13.7738 8.7936 10.8074 10.5592 8.88317C12.3248 6.95895 15.348 6.80554 17.3117 8.54051C19.2753 10.2755 19.4358 13.2419 17.6702 15.1661C17.2745 15.5973 16.8158 15.9395 16.3199 16.1915ZM16.067 13.7872C17.0805 12.6746 16.9884 10.9595 15.8612 9.95633C14.7339 8.95317 12.9985 9.04187 11.9849 10.1545C10.9714 11.267 11.0635 12.9822 12.1908 13.9854C13.318 14.9885 15.0534 14.8998 16.067 13.7872Z" fill="white"/>
</svg>
