<svg width="10" height="7" viewBox="0 0 10 7" fill="none" xmlns="http://www.w3.org/2000/svg">
<path d="M3.59375 6.00391L3.98438 5.61328C4.0625 5.51562 4.0625 5.37891 3.96484 5.28125L2.40234 3.75781H9.14062C9.25781 3.75781 9.375 3.66016 9.375 3.52344V2.97656C9.375 2.85938 9.25781 2.74219 9.14062 2.74219H2.40234L3.96484 1.23828C4.0625 1.14062 4.0625 1.00391 3.98438 0.90625L3.59375 0.515625C3.49609 0.4375 3.35938 0.4375 3.26172 0.515625L0.683594 3.09375C0.605469 3.19141 0.605469 3.32812 0.683594 3.42578L3.26172 6.00391C3.35938 6.08203 3.49609 6.08203 3.59375 6.00391Z" fill="black"/>
</svg>
