<svg width="10" height="7" viewBox="0 0 10 7" fill="none" xmlns="http://www.w3.org/2000/svg">
<path d="M6.38672 0.515625L5.99609 0.90625C5.91797 1.00391 5.91797 1.14062 6.01562 1.23828L7.57812 2.74219H0.859375C0.722656 2.74219 0.625 2.85938 0.625 2.97656V3.52344C0.625 3.66016 0.722656 3.75781 0.859375 3.75781H7.57812L6.01562 5.28125C5.91797 5.37891 5.91797 5.51562 5.99609 5.61328L6.38672 6.00391C6.48438 6.08203 6.62109 6.08203 6.71875 6.00391L9.29688 3.42578C9.375 3.32812 9.375 3.19141 9.29688 3.09375L6.71875 0.515625C6.62109 0.4375 6.48438 0.4375 6.38672 0.515625Z" fill="black"/>
</svg>
