<svg width="24" height="24" viewBox="0 0 24 24" fill="none" xmlns="http://www.w3.org/2000/svg">
<path fill-rule="evenodd" clip-rule="evenodd" d="M12 2C6.47715 2 2 6.47715 2 12C2 17.5228 6.47715 22 12 22C17.5228 22 22 17.5228 22 12C22 6.47715 17.5228 2 12 2ZM0 12C0 5.37258 5.37258 0 12 0C18.6274 0 24 5.37258 24 12C24 18.6274 18.6274 24 12 24C5.37258 24 0 18.6274 0 12Z" fill="#8C30F5"/>
<path fill-rule="evenodd" clip-rule="evenodd" d="M12 5.5C12.5523 5.5 13 5.94772 13 6.5V17.4654C13 18.0176 12.5523 18.4654 12 18.4654C11.4477 18.4654 11 18.0176 11 17.4654V6.5C11 5.94772 11.4477 5.5 12 5.5Z" fill="#8C30F5"/>
<path fill-rule="evenodd" clip-rule="evenodd" d="M8.57733 7.89936C9.18014 7.09694 10.2578 6.5 12 6.5C13.7402 6.5 14.8169 7.09336 15.4183 7.89531C15.7018 8.27324 15.8436 8.65178 15.9149 8.93843C15.9506 9.08229 15.9694 9.20619 15.9794 9.30046C15.9843 9.34777 15.9871 9.38813 15.9887 9.42044C15.9895 9.4366 15.9899 9.45081 15.9902 9.46292L15.9905 9.4795L15.9905 9.4866L15.9905 9.48985L15.9905 9.49139C15.9905 9.49214 15.9905 9.49289 14.9905 9.49066L15.9905 9.49289C15.9893 10.0452 15.5406 10.4919 14.9883 10.4907C14.4446 10.4894 14.0033 10.0546 13.9908 9.51426C13.9907 9.51308 13.9905 9.51158 13.9903 9.50979C13.9888 9.49519 13.9846 9.46358 13.9739 9.42081C13.9524 9.33421 13.9082 9.21509 13.8184 9.09535C13.6733 8.90197 13.2547 8.5 12 8.5C10.7472 8.5 10.3248 8.90306 10.1764 9.10064C10.0849 9.22245 10.0395 9.34371 10.0172 9.43194C10.0062 9.47551 10.0017 9.50779 10.0001 9.52288C10 9.52349 9.99996 9.52407 9.99991 9.52461L9.99976 9.58204L9.9914 9.63344C9.99097 9.64665 9.99092 9.6742 9.99507 9.71209C10.004 9.79399 10.0316 9.91706 10.1126 10.0535C10.2517 10.2878 10.6904 10.7937 12.1475 11.0109C14.0163 11.2896 15.0777 12.0338 15.6071 12.9255C15.8603 13.352 15.9591 13.761 15.993 14.0703C16.0099 14.2248 16.0109 14.3563 16.0065 14.4562C16.0044 14.5054 16.001 14.5474 15.9974 14.5813C15.9956 14.6128 15.9926 14.6516 15.9876 14.6968C15.9771 14.791 15.9575 14.9148 15.921 15.0586C15.8483 15.3451 15.7047 15.7234 15.4205 16.1012C14.8175 16.9027 13.7406 17.5 12 17.5C10.2594 17.5 9.18241 16.9027 8.57942 16.1012C8.29519 15.7234 8.15168 15.3451 8.07893 15.0586C8.04242 14.9148 8.02288 14.791 8.01237 14.6968C8.0071 14.6495 8.00405 14.6092 8.00229 14.5769C8.00141 14.5608 8.00085 14.5466 8.0005 14.5346L8.00012 14.518L8.00003 14.511L8 14.5077L7.99998 14.5062C7.99998 14.5055 7.99998 14.5047 8.99931 14.5L7.99998 14.5047C7.99737 13.9524 8.44296 13.5026 8.99524 13.5C9.53907 13.4974 9.98355 13.9295 9.99952 14.47C9.99965 14.4713 9.99982 14.473 10.0001 14.4751C10.0017 14.4903 10.0063 14.5227 10.0174 14.5664C10.0399 14.6549 10.0856 14.7766 10.1776 14.8988C10.327 15.0973 10.75 15.5 12 15.5C13.2499 15.5 13.673 15.0973 13.8223 14.8988C13.9143 14.7766 13.9601 14.6549 13.9825 14.5664C13.9936 14.5227 13.9982 14.4903 13.9999 14.4751C14 14.4744 14 14.4738 14.0001 14.4733L14.0004 14.4169L14.0085 14.3666C14.009 14.3534 14.009 14.3258 14.0049 14.2879C13.9959 14.206 13.9683 14.0829 13.8873 13.9465C13.7482 13.7122 13.3096 13.2063 11.8525 12.9891C9.98361 12.7104 8.92225 11.9662 8.39286 11.0745C8.13961 10.648 8.04079 10.239 8.00694 9.92967C7.99003 9.77517 7.98906 9.64367 7.99339 9.54378C7.9955 9.49515 7.99888 9.45353 8.00241 9.41982C8.00415 9.38848 8.00707 9.34997 8.01197 9.30524C8.02229 9.21096 8.0416 9.08699 8.07788 8.94306C8.15017 8.65629 8.29321 8.27755 8.57733 7.89936Z" fill="#8C30F5"/>
</svg>
