<svg width="28" height="29" viewBox="0 0 28 29" fill="none" xmlns="http://www.w3.org/2000/svg">
<path fill-rule="evenodd" clip-rule="evenodd" d="M22.4452 25.6213L25.2167 22.8498L24.2406 19.3037L24.6658 18.2881L27.875 16.4773V12.5581L24.6749 10.7397L24.2568 9.72584L25.2452 6.17794L22.4718 3.40854L18.9254 4.38435L17.912 3.95947L16.101 0.75H12.1818L10.3634 3.95005L9.34981 4.36808L5.80248 3.37851L3.03338 6.14761L4.00935 9.69459L3.58447 10.7079L0.375 12.5189V16.437L3.57217 18.2595L3.99065 19.2742L3.00246 22.8215L5.77261 25.5916L9.31959 24.6157L10.333 25.0406L12.1441 28.2487H16.0623L17.8834 25.0515L18.8979 24.6331L22.4452 25.6213ZM22.6908 16.532L21.6011 19.1347L22.4203 22.1107L21.7097 22.8212L18.74 21.9939L16.1362 23.0678L14.6092 25.7487H13.6036L12.0893 23.0661L9.48944 21.976L6.51183 22.7953L5.80253 22.086L6.62982 19.1163L5.55602 16.5127L2.875 14.9844V13.9788L5.55887 12.4644L6.64899 9.86444L5.82969 6.88683L6.53751 6.17901L9.5072 7.00744L12.1119 5.93319L13.6366 3.25H14.6412L16.1556 5.93387L18.7555 7.02399L21.7337 6.20453L22.4448 6.91457L21.6177 9.88369L22.6918 12.4882L25.375 14.0129V15.0174L22.6908 16.532ZM14.125 19.5C11.3636 19.5 9.125 17.2614 9.125 14.5C9.125 11.7386 11.3636 9.5 14.125 9.5C16.8864 9.5 19.125 11.7386 19.125 14.5C19.125 17.2614 16.8864 19.5 14.125 19.5ZM16.625 14.5C16.625 15.8807 15.5057 17 14.125 17C12.7443 17 11.625 15.8807 11.625 14.5C11.625 13.1193 12.7443 12 14.125 12C15.5057 12 16.625 13.1193 16.625 14.5Z" fill="#FFF"/>
</svg>
