<svg width="15" height="13" viewBox="0 0 15 13" fill="none" xmlns="http://www.w3.org/2000/svg">
<path d="M8.621 0.293C8.43353 0.480528 8.32821 0.734836 8.32821 1C8.32821 1.26516 8.43353 1.51947 8.621 1.707L11.913 5L1.5 5.007C1.23478 5.007 0.98043 5.11236 0.792893 5.29989C0.605357 5.48743 0.5 5.74178 0.5 6.007C0.5 6.27222 0.605357 6.52657 0.792893 6.71411C0.98043 6.90164 1.23478 7.007 1.5 7.007L11.914 7L8.621 10.293C8.52549 10.3852 8.44931 10.4956 8.3969 10.6176C8.34449 10.7396 8.3169 10.8708 8.31575 11.0036C8.3146 11.1364 8.3399 11.2681 8.39018 11.391C8.44046 11.5138 8.51471 11.6255 8.60861 11.7194C8.7025 11.8133 8.81415 11.8875 8.93705 11.9378C9.05994 11.9881 9.19162 12.0134 9.3244 12.0123C9.45718 12.0111 9.5884 11.9835 9.7104 11.9311C9.83241 11.8787 9.94275 11.8025 10.035 11.707L13.621 8.122C13.8996 7.84342 14.1207 7.51268 14.2715 7.14867C14.4222 6.78466 14.4999 6.39451 14.4999 6.0005C14.4999 5.60649 14.4222 5.21634 14.2715 4.85233C14.1207 4.48832 13.8996 4.15758 13.621 3.879L10.035 0.293C9.84747 0.105529 9.59316 0.000213623 9.328 0.000213623C9.06284 0.000213623 8.80853 0.105529 8.621 0.293Z" fill="#758796"/>
</svg>
