<svg width="24" height="24" viewBox="0 0 24 24" fill="none" xmlns="http://www.w3.org/2000/svg">
<g clip-path="url(#clip0)">
<path fill-rule="evenodd" clip-rule="evenodd" d="M1 24C1.55228 24 2 23.5523 2 23V22.2C2 20.985 2.98497 20 4.2 20H19.8C21.015 20 22 20.985 22 22.2V23C22 23.5523 22.4477 24 23 24C23.5523 24 24 23.5523 24 23V22.2C24 19.8804 22.1196 18 19.8 18H4.2C1.8804 18 0 19.8804 0 22.2V23C0 23.5523 0.447715 24 1 24Z" fill="#8C30F5"/>
<path fill-rule="evenodd" clip-rule="evenodd" d="M17.7929 11.8571C17.4024 11.4666 17.4024 10.8335 17.7929 10.4429L21.432 6.80386C21.8225 6.41333 21.8225 5.78017 21.432 5.38964L17.7929 1.75056C17.4024 1.36004 17.4024 0.726874 17.7929 0.33635C18.1834 -0.0541751 18.8166 -0.0541751 19.2071 0.33635L22.8462 3.97543C24.0178 5.147 24.0178 7.0465 22.8462 8.21807L19.2071 11.8571C18.8166 12.2477 18.1834 12.2477 17.7929 11.8571Z" fill="#8C30F5"/>
<path fill-rule="evenodd" clip-rule="evenodd" d="M22 6.00002C22 5.44773 21.5523 5.00002 21 5.00002H17C12.5817 5.00002 9 8.58174 9 13V15C9 15.5523 9.44771 16 10 16C10.5523 16 11 15.5523 11 15V13C11 9.68631 13.6863 7.00002 17 7.00002H21C21.5523 7.00002 22 6.5523 22 6.00002Z" fill="#8C30F5"/>
<path fill-rule="evenodd" clip-rule="evenodd" d="M4 23C4 22.4477 4.44772 22 5 22H19C19.5523 22 20 22.4477 20 23C20 23.5523 19.5523 24 19 24H5C4.44772 24 4 23.5523 4 23Z" fill="#8C30F5"/>
</g>
<defs>
<clipPath id="clip0">
<rect width="24" height="24" fill="white"/>
</clipPath>
</defs>
</svg>
